<svg width="1469" height="1055" viewBox="0 0 1469 1055" fill="none" xmlns="http://www.w3.org/2000/svg">
<rect x="1469" y="1024" width="1440" height="1024" transform="rotate(-180 1469 1024)" fill="#285A43"/>
<g opacity="0.2" clip-path="url(#clip0_155_1706)">
<path d="M214.445 508.528C213.349 508.584 212.306 508.964 211.478 509.609C210.651 510.253 210.088 511.126 209.877 512.088C208.166 520.198 207.42 528.446 207.654 536.694C207.671 536.808 207.663 536.924 207.629 537.035C207.596 537.146 207.538 537.25 207.459 537.341C207.38 537.432 207.282 537.508 207.17 537.565C207.057 537.621 206.934 537.657 206.806 537.671C206.69 537.706 206.568 537.721 206.446 537.713C206.325 537.705 206.206 537.675 206.097 537.625C205.989 537.575 205.893 537.506 205.816 537.422C205.738 537.337 205.68 537.24 205.646 537.135C202.13 530.117 199.543 522.755 197.939 515.198C197.817 514.601 197.559 514.033 197.18 513.53C196.801 513.027 196.31 512.599 195.737 512.273C195.165 511.947 194.523 511.731 193.852 511.637C193.181 511.544 192.496 511.575 191.839 511.729C179.153 514.703 167.103 519.532 156.178 526.022C156.042 526.103 155.909 526.19 155.783 526.282L153.884 527.669C153.173 528.188 152.639 528.874 152.339 529.648C152.04 530.423 151.988 531.257 152.189 532.057C155.162 543.272 159.792 554.083 165.959 564.203C166.217 564.572 166.309 565.016 166.216 565.444C166.122 565.871 165.85 566.252 165.455 566.508C165.112 566.799 164.656 566.96 164.183 566.959C163.71 566.957 163.257 566.793 162.916 566.5C153.998 560.096 146.1 552.635 139.439 544.322C139.05 543.826 138.55 543.407 137.971 543.092C137.392 542.776 136.747 542.571 136.075 542.489C135.403 542.406 134.719 542.449 134.066 542.613C133.413 542.778 132.805 543.06 132.279 543.444L129.778 545.271C122.379 550.501 116.205 556.983 111.61 564.346C107.016 571.709 104.091 579.809 103.003 588.18C102.401 592.51 102.902 596.904 104.468 601.035C106.034 605.165 108.624 608.925 112.045 612.033C115.467 615.141 119.631 617.517 124.226 618.983C128.821 620.449 133.729 620.968 138.583 620.501L149.518 619.567C150.863 619.452 152.219 619.599 153.493 619.998C154.767 620.397 155.929 621.038 156.899 621.878C157.868 622.717 158.622 623.735 159.108 624.861C159.594 625.987 159.802 627.193 159.715 628.398L159.015 638.196C158.645 642.546 159.38 646.914 161.164 650.973C162.949 655.031 165.737 658.676 169.321 661.634C172.904 664.593 177.191 666.788 181.859 668.057C186.528 669.326 191.458 669.635 196.281 668.961C205.598 667.729 214.554 664.868 222.637 660.541C230.719 656.214 237.769 650.506 243.384 643.743L245.391 641.4C245.843 640.865 246.152 640.244 246.294 639.586C286.942 642.769 339.241 643.314 402.532 641.209L402.665 668.266C352.052 663.89 316.325 666.031 291.105 671.176C280.805 666.989 269.527 665.077 258.221 665.602C253.344 665.782 248.574 666.944 244.268 669.003C239.962 671.062 236.231 673.963 233.354 677.49C230.477 681.017 228.529 685.079 227.654 689.372C226.78 693.664 227.002 698.077 228.304 702.28L231.106 711.769C231.45 712.936 231.507 714.156 231.273 715.345C231.039 716.534 230.519 717.664 229.749 718.657C228.979 719.649 227.978 720.481 226.814 721.095C225.65 721.708 224.352 722.089 223.008 722.211L212.078 723.201C207.216 723.589 202.513 724.954 198.322 727.194C194.13 729.434 190.558 732.49 187.873 736.136C185.187 739.781 183.457 743.921 182.813 748.246C182.168 752.571 182.626 756.97 184.15 761.112C187.019 769.125 191.628 776.553 197.713 782.969C203.799 789.386 211.241 794.666 219.615 798.507L222.527 799.893C223.125 800.178 223.783 800.349 224.459 800.397C225.135 800.444 225.815 800.366 226.457 800.168C227.098 799.97 227.687 799.656 228.187 799.246C228.686 798.836 229.086 798.338 229.361 797.783C234.101 788.467 240.239 779.771 247.605 771.934C247.876 771.586 248.285 771.346 248.749 771.262C249.213 771.178 249.695 771.258 250.094 771.483C250.538 771.665 250.887 771.991 251.071 772.394C251.255 772.798 251.261 773.249 251.086 773.656C247.221 784.659 245.012 796.072 244.516 807.593C244.497 808.411 244.73 809.219 245.19 809.926C245.651 810.633 246.32 811.213 247.126 811.602L249.289 812.631C249.433 812.7 249.58 812.762 249.731 812.817C261.85 817.279 274.713 819.916 287.8 820.622C288.478 820.658 289.157 820.569 289.795 820.36C290.433 820.151 291.016 819.827 291.507 819.408C291.999 818.988 292.388 818.483 292.651 817.923C292.914 817.363 293.045 816.761 293.036 816.154C292.982 808.462 293.93 800.789 295.862 793.29C295.873 793.181 295.908 793.076 295.966 792.98C296.024 792.883 296.103 792.799 296.199 792.731C296.294 792.663 296.404 792.613 296.522 792.584C296.64 792.555 296.763 792.548 296.884 792.563C297.013 792.553 297.142 792.566 297.264 792.602C297.387 792.638 297.5 792.695 297.597 792.771C297.694 792.846 297.773 792.938 297.83 793.042C297.886 793.145 297.919 793.258 297.926 793.372C299.481 801.504 301.992 809.465 305.418 817.124C305.833 818.031 306.574 818.789 307.525 819.277C308.476 819.765 309.582 819.956 310.668 819.82C314.485 819.34 318.169 818.716 321.619 817.966L360.176 809.57C363.256 808.899 365.994 807.32 367.949 805.088C369.904 802.856 370.961 800.102 370.951 797.269C370.948 796.78 370.914 796.293 370.849 795.808L366.101 760.609C365.676 757.461 365.035 754.16 364.196 750.798C363.958 749.842 363.369 748.984 362.523 748.36C361.678 747.736 360.623 747.383 359.527 747.355C350.297 747.18 341.071 747.876 332.003 749.432C331.88 749.467 331.751 749.479 331.623 749.468C331.494 749.457 331.37 749.423 331.257 749.368C331.144 749.314 331.044 749.239 330.963 749.15C330.883 749.06 330.823 748.956 330.788 748.846C330.73 748.75 330.694 748.644 330.683 748.535C330.672 748.427 330.686 748.317 330.724 748.213C330.761 748.109 330.822 748.013 330.903 747.931C330.983 747.849 331.082 747.782 331.192 747.735C338.37 743.482 346.078 739.993 354.16 737.338C354.8 737.132 355.385 736.811 355.879 736.395C356.373 735.978 356.766 735.475 357.033 734.916C357.3 734.358 357.435 733.756 357.43 733.15C357.425 732.543 357.279 731.943 357.003 731.389C351.666 720.691 344.383 710.858 335.449 702.289C335.338 702.182 335.221 702.08 335.098 701.984L333.259 700.537C332.571 699.996 331.728 699.636 330.824 699.5C329.92 699.363 328.991 699.454 328.142 699.763C316.242 704.225 305.058 710.082 294.884 717.181C294.518 717.469 294.044 717.623 293.556 717.611C293.069 717.598 292.605 717.421 292.259 717.115C291.882 716.86 291.629 716.485 291.554 716.067C291.479 715.65 291.587 715.222 291.856 714.874C297.481 705.959 304.438 697.77 312.537 690.533C313.021 690.108 313.403 689.599 313.657 689.037C313.912 688.475 314.034 687.872 314.016 687.266C313.998 686.66 313.841 686.064 313.553 685.515C313.266 684.966 312.856 684.476 312.347 684.076L309.925 682.17C307.996 680.612 305.974 679.149 303.867 677.787C327.362 674.246 359.298 673.242 402.71 677.099L402.982 732.272C402.985 732.934 403.155 733.587 403.479 734.181C403.802 734.776 404.272 735.298 404.852 735.708C405.432 736.119 406.109 736.407 406.831 736.552C407.553 736.697 408.303 736.694 409.024 736.545L534.475 710.587C540.809 709.302 546.463 706.118 550.495 701.565C554.528 697.011 556.696 691.363 556.64 685.559L556.34 624.8C556.339 618.996 554.116 613.369 550.038 608.855C545.961 604.342 540.276 601.214 533.929 599.991L408.228 575.272C407.505 575.129 406.756 575.134 406.035 575.286C405.314 575.438 404.641 575.733 404.064 576.149C403.488 576.565 403.024 577.092 402.706 577.69C402.388 578.288 402.225 578.942 402.228 579.603L402.488 632.383C325.053 634.963 272.244 633.295 236.241 629.877C229.87 625.329 223.979 620.269 218.642 614.76C218.304 614.465 218.106 614.064 218.09 613.642C218.073 613.22 218.24 612.808 218.554 612.492C218.828 612.131 219.244 611.876 219.72 611.779C220.196 611.682 220.694 611.75 221.116 611.969C232.628 617.16 244.864 620.956 257.501 623.258C258.401 623.413 259.332 623.34 260.19 623.048C261.047 622.757 261.797 622.257 262.354 621.606L263.846 619.866C263.945 619.75 264.037 619.63 264.124 619.506C271.038 609.542 276.06 598.626 278.987 587.2C279.138 586.609 279.151 585.995 279.025 585.399C278.9 584.803 278.637 584.237 278.255 583.735C277.873 583.234 277.379 582.809 276.804 582.486C276.229 582.164 275.586 581.951 274.914 581.861C266.413 580.665 258.098 578.586 250.139 575.666C250.021 575.638 249.91 575.59 249.813 575.523C249.717 575.457 249.636 575.373 249.577 575.278C249.518 575.183 249.48 575.078 249.468 574.969C249.455 574.861 249.467 574.751 249.503 574.647C249.513 574.532 249.549 574.42 249.609 574.318C249.668 574.216 249.75 574.125 249.849 574.052C249.949 573.978 250.063 573.923 250.187 573.89C250.31 573.857 250.44 573.846 250.568 573.859C259.8 573.805 269 572.879 278.017 571.098C279.086 570.879 280.044 570.348 280.739 569.589C281.435 568.83 281.827 567.886 281.855 566.906C281.885 565.82 281.898 564.744 281.893 563.679C281.882 561.37 281.785 559.116 281.606 556.949L278.666 521.591C278.409 518.515 276.899 515.632 274.422 513.486C271.945 511.341 268.672 510.083 265.224 509.95L225.588 508.438C222.041 508.302 218.292 508.333 214.445 508.528ZM301.93 687.637C294.774 694.599 288.525 702.263 283.303 710.482C281.883 712.595 281.349 715.09 281.797 717.52C282.245 719.951 283.645 722.159 285.748 723.75C287.813 725.391 290.457 726.333 293.22 726.412C295.984 726.491 298.692 725.703 300.875 724.183C309.536 718.156 318.965 713.068 328.965 709.025C335.648 715.565 341.3 722.891 345.765 730.8C338.798 733.436 332.114 736.634 325.797 740.354C323.683 741.592 322.113 743.446 321.356 745.6C320.598 747.754 320.7 750.076 321.643 752.169C322.586 754.263 324.312 755.998 326.528 757.08C328.743 758.162 331.311 758.524 333.793 758.103C340.901 756.895 348.113 756.238 355.347 756.139C355.741 758.03 356.061 759.882 356.303 761.675L361.05 796.873C361.175 797.791 360.917 798.719 360.327 799.48C359.737 800.241 358.855 800.782 357.849 801.001L319.293 809.396C317.329 809.824 315.276 810.207 313.157 810.541C310.718 804.456 308.873 798.193 307.643 791.823C307.211 789.599 305.93 787.579 304.018 786.106C302.105 784.633 299.68 783.799 297.155 783.745C294.63 783.692 292.161 784.423 290.169 785.813C288.178 787.203 286.786 789.167 286.232 791.37C284.552 797.962 283.549 804.675 283.234 811.428C273.378 810.473 263.714 808.32 254.512 805.028C255.236 795.244 257.256 785.569 260.529 776.207C261.355 773.848 261.231 771.306 260.177 769.022C259.123 766.738 257.207 764.858 254.762 763.707C252.355 762.507 249.549 762.111 246.844 762.59C244.14 763.07 241.713 764.393 239.997 766.323C233.218 773.579 227.382 781.499 222.6 789.93C208.774 783.151 198.385 771.893 193.569 758.47C192.481 755.577 192.144 752.499 192.584 749.471C193.024 746.442 194.228 743.542 196.106 740.99C197.984 738.437 200.487 736.299 203.424 734.738C206.362 733.176 209.658 732.232 213.063 731.976L223.992 730.986C227.97 730.622 231.722 729.155 234.723 726.791C235.038 727.186 235.426 727.531 235.868 727.811L317.592 778.395C318.124 778.73 318.725 778.967 319.361 779.093C319.996 779.22 320.654 779.232 321.295 779.13C321.936 779.028 322.548 778.814 323.097 778.499C323.645 778.185 324.119 777.776 324.49 777.298C324.861 776.819 325.122 776.28 325.259 775.711C325.396 775.142 325.406 774.554 325.287 773.982C325.169 773.41 324.925 772.864 324.57 772.377C324.214 771.89 323.754 771.47 323.216 771.143L241.493 720.559C241.043 720.287 240.546 720.084 240.022 719.959C241.446 716.618 241.664 712.964 240.647 709.509L237.845 700.02C236.917 697.083 236.749 693.994 237.353 690.989C237.958 687.983 239.319 685.139 241.334 682.671C243.349 680.204 245.965 678.177 248.984 676.746C252.004 675.314 255.347 674.514 258.761 674.407C274.52 673.723 289.967 678.457 301.93 687.637ZM531.797 608.606C535.953 609.406 539.675 611.454 542.345 614.41C545.014 617.365 546.47 621.049 546.471 624.849L546.77 685.608C546.807 689.408 545.388 693.106 542.747 696.087C540.107 699.068 536.405 701.153 532.258 701.994L412.822 726.707L412.124 585.072L531.797 608.606ZM225.156 517.25L264.792 518.762C265.826 518.802 266.808 519.18 267.551 519.823C268.294 520.467 268.747 521.332 268.824 522.254L271.763 557.612C271.913 559.414 271.998 561.286 272.02 563.209C264.902 564.374 257.686 564.987 250.452 565.04C247.914 565.05 245.459 565.853 243.514 567.312C241.569 568.77 240.257 570.791 239.805 573.023C239.672 573.65 239.606 574.286 239.609 574.924C239.617 576.852 240.272 578.733 241.49 580.324C242.707 581.915 244.431 583.142 246.439 583.847C253.439 586.396 260.686 588.367 268.089 589.738C265.416 598.275 261.454 606.447 256.31 614.028C245.628 611.806 235.279 608.458 225.482 604.056C223.013 602.945 220.185 602.644 217.492 603.203C214.798 603.763 212.407 605.148 210.735 607.118C209.016 609.045 208.118 611.456 208.203 613.918C208.289 616.381 209.351 618.735 211.201 620.56C218.098 627.714 225.883 634.143 234.406 639.724C224.653 650.818 210.52 658.156 194.912 660.229C191.539 660.719 188.087 660.518 184.815 659.64C181.544 658.762 178.54 657.23 176.031 655.161C173.521 653.091 171.572 650.538 170.33 647.694C169.088 644.851 168.587 641.792 168.864 638.748L169.564 628.95C169.816 625.384 168.812 621.838 166.695 618.809C167.183 618.594 167.627 618.309 168.009 617.964L237.262 554.092C238.174 553.251 238.674 552.122 238.654 550.953C238.634 549.783 238.095 548.669 237.156 547.856C236.217 547.042 234.954 546.596 233.645 546.615C232.337 546.634 231.09 547.117 230.179 547.958L160.926 611.83C160.552 612.182 160.247 612.588 160.022 613.03C156.568 611.234 152.57 610.449 148.589 610.786L137.654 611.72C134.259 612.063 130.822 611.711 127.603 610.692C124.384 609.672 121.468 608.011 119.074 605.834C116.681 603.658 114.874 601.023 113.789 598.128C112.704 595.234 112.37 592.156 112.813 589.128C114.643 575.122 122.404 562.268 134.502 553.207C141.012 560.643 148.447 567.395 156.664 573.331C158.763 574.925 161.43 575.799 164.186 575.798C166.943 575.797 169.61 574.919 171.712 573.323C173.862 571.768 175.336 569.588 175.877 567.164C176.418 564.74 175.992 562.224 174.673 560.054C169.441 551.44 165.371 542.302 162.549 532.829C170.866 527.996 179.881 524.199 189.344 521.543C191.11 528.112 193.543 534.524 196.614 540.697C197.633 542.762 199.422 544.446 201.676 545.463C203.93 546.48 206.509 546.766 208.975 546.273C211.441 545.781 213.64 544.539 215.198 542.761C216.756 540.982 217.577 538.777 217.52 536.52C217.351 530.056 217.809 523.591 218.889 517.197C221.04 517.155 223.137 517.172 225.156 517.25Z" fill="white" fill-opacity="0.5"/>
</g>
<g opacity="0.2" clip-path="url(#clip1_155_1706)">
<path d="M362.775 920.124C361.712 918.714 360.29 917.616 358.656 916.945C357.023 916.274 355.239 916.055 353.492 916.311C320.318 921.17 289.369 935.584 262.006 958.642C261.317 956.236 260.478 953.875 259.494 951.573C257.8 947.382 256.048 943.049 256.878 939.961C257.519 937.578 260.844 934.945 264.061 932.4C268.049 929.243 272.57 925.665 274.613 920.667C276.439 916.204 275.756 911.088 275.096 906.141C274.704 903.713 274.492 901.26 274.462 898.801C274.492 897.432 274.144 896.081 273.459 894.897C272.773 893.712 271.775 892.738 270.573 892.082C269.363 891.412 267.992 891.086 266.609 891.142C265.227 891.197 263.886 891.631 262.733 892.396C238.309 908.586 220.376 932.784 209.989 963.25C199.602 932.79 181.686 908.583 157.265 892.396C156.112 891.631 154.771 891.197 153.388 891.141C152.006 891.086 150.634 891.411 149.424 892.082C148.223 892.739 147.225 893.712 146.539 894.897C145.854 896.082 145.506 897.432 145.536 898.801C145.505 901.26 145.293 903.713 144.902 906.141C144.242 911.088 143.559 916.203 145.384 920.666C147.428 925.664 151.949 929.243 155.938 932.4C159.154 934.945 162.48 937.577 163.121 939.96C163.951 943.048 162.198 947.382 160.504 951.573C159.521 953.875 158.682 956.236 157.992 958.642C130.629 935.583 99.6798 921.17 66.5053 916.311C64.759 916.056 62.9763 916.275 61.3438 916.946C59.7113 917.616 58.289 918.713 57.2257 920.122C56.1624 921.53 55.4973 923.199 55.3 924.952C55.1027 926.706 55.3804 928.481 56.104 930.09C57.2735 932.839 58.3038 935.646 59.1909 938.498C61.3051 944.895 63.491 951.51 68.151 955.688C73.4191 960.411 80.7109 962.023 87.7618 963.583C93.9097 964.943 99.7165 966.228 102.362 969.279C105.679 973.104 106.141 979.922 106.588 986.516C107.035 993.118 107.498 999.945 110.84 1005.04C114.823 1011.11 121.812 1014.8 127.978 1018.06C133.437 1020.95 138.593 1023.67 140.212 1027.11C142.681 1032.35 141.102 1039.43 139.576 1046.29C138.769 1049.56 138.181 1052.88 137.816 1056.22H128.175C126.982 1056.22 125.837 1056.7 124.993 1057.54C124.149 1058.38 123.675 1059.53 123.675 1060.72V1079.19C123.664 1114.87 129.483 1150.32 140.902 1184.12L146.967 1202.1H139.215C138.022 1202.1 136.877 1202.57 136.033 1203.42C135.189 1204.26 134.715 1205.41 134.715 1206.6V1234.36C134.715 1235.56 135.189 1236.7 136.033 1237.55C136.877 1238.39 138.022 1238.86 139.215 1238.86H280.783C281.977 1238.86 283.122 1238.39 283.965 1237.55C284.809 1236.7 285.283 1235.56 285.283 1234.36V1206.6C285.283 1205.41 284.809 1204.26 283.965 1203.42C283.122 1202.58 281.977 1202.1 280.783 1202.1H273.032L279.098 1184.12C290.516 1150.32 296.335 1114.87 296.323 1079.19V1060.72C296.323 1059.53 295.849 1058.38 295.005 1057.54C294.162 1056.7 293.017 1056.22 291.823 1056.22H282.183C281.818 1052.88 281.23 1049.56 280.423 1046.29C278.897 1039.43 277.318 1032.35 279.787 1027.11C281.406 1023.67 286.562 1020.95 292.021 1018.06C298.187 1014.8 305.175 1011.11 309.159 1005.04C312.502 999.945 312.964 993.118 313.411 986.516C313.858 979.922 314.319 973.105 317.636 969.279C320.282 966.228 326.089 964.943 332.237 963.584C339.289 962.024 346.58 960.411 351.847 955.688C356.507 951.51 358.694 944.895 360.807 938.498C361.695 935.646 362.725 932.84 363.894 930.091C364.619 928.482 364.897 926.708 364.7 924.954C364.503 923.201 363.838 921.532 362.775 920.124ZM265.527 901.377C265.649 903.382 265.915 905.379 266.175 907.331C266.679 911.109 267.2 915.017 266.283 917.26C265.133 920.073 261.748 922.752 258.475 925.343C254.112 928.796 249.6 932.368 248.187 937.625C246.573 943.625 249.005 949.64 251.15 954.946C252.552 958.415 254.002 962.003 253.701 964.322C253.587 965.102 253.378 965.865 253.078 966.595C241.407 977.639 230.817 989.773 221.453 1002.83C217.261 1008.64 213.457 1014.37 210.003 1019.92C209.658 1019.37 209.293 1018.8 208.94 1018.24C209.37 1009.48 210.35 1000.75 211.875 992.114C219.097 951.599 237.14 921.087 265.527 901.377ZM166.297 964.322C165.996 962.003 167.446 958.416 168.848 954.947C170.993 949.64 173.425 943.625 171.812 937.625C170.399 932.368 165.887 928.796 161.523 925.343C158.25 922.753 154.865 920.073 153.715 917.26C152.798 915.017 153.319 911.11 153.823 907.331C154.083 905.379 154.35 903.382 154.472 901.376C179.765 918.94 196.842 945.093 205.372 979.254C204.488 982.94 203.702 986.7 203.014 990.535C202.054 995.92 201.351 1001.12 200.837 1006.07C200.082 1004.99 199.326 1003.91 198.545 1002.83C189.181 989.773 178.591 977.639 166.92 966.594C166.62 965.865 166.411 965.102 166.297 964.322ZM148.354 1023.27C145.454 1017.12 138.707 1013.55 132.183 1010.11C126.723 1007.22 121.077 1004.24 118.365 1000.1C116.317 996.982 115.953 991.603 115.567 985.908C115.046 978.211 114.455 969.488 109.161 963.383C104.567 958.084 97.012 956.412 89.7058 954.796C83.7879 953.487 77.6686 952.133 74.1589 948.987C71.2843 946.41 69.5612 941.196 67.737 935.675C66.7554 932.524 65.6116 929.427 64.3102 926.395C64.2495 926.257 64.2268 926.105 64.2442 925.956C64.2617 925.806 64.3189 925.664 64.4097 925.544C64.5006 925.424 64.6219 925.33 64.7611 925.273C64.9002 925.215 65.0522 925.196 65.2014 925.217C92.1287 929.16 117.436 939.587 140.42 956.209C158.904 969.576 175.954 986.964 191.095 1007.89C202.022 1023.09 211.513 1039.27 219.444 1056.22H146.865C147.225 1053.54 147.724 1050.88 148.36 1048.25C150.129 1040.3 152.135 1031.3 148.354 1023.27ZM276.284 1229.86H143.715V1211.1H276.283L276.284 1229.86ZM287.324 1079.19C287.335 1113.89 281.676 1148.37 270.571 1181.25L263.534 1202.1H156.465L149.428 1181.25C138.322 1148.37 132.663 1113.89 132.675 1079.19V1065.22H287.323L287.324 1079.19ZM355.689 926.394C354.387 929.426 353.244 932.524 352.262 935.674C350.438 941.195 348.714 946.41 345.839 948.987C342.329 952.133 336.21 953.487 330.293 954.796C322.987 956.413 315.433 958.084 310.837 963.383C305.543 969.488 304.953 978.211 304.431 985.908C304.046 991.603 303.682 996.982 301.633 1000.1C298.921 1004.24 293.276 1007.22 287.816 1010.11C281.292 1013.55 274.545 1017.12 271.646 1023.27C267.864 1031.3 269.87 1040.3 271.639 1048.25C272.275 1050.88 272.774 1053.54 273.134 1056.22H229.397C225.938 1048.56 221.264 1039.08 215.237 1028.65C219.248 1021.96 223.787 1014.96 228.903 1007.89C244.045 986.963 261.094 969.575 279.578 956.208C302.563 939.587 327.869 929.16 354.797 925.216C354.946 925.195 355.098 925.215 355.237 925.272C355.377 925.33 355.498 925.423 355.589 925.543C355.68 925.663 355.737 925.806 355.754 925.955C355.772 926.105 355.75 926.256 355.689 926.394Z" fill="white" fill-opacity="0.5"/>
</g>
<defs>
<clipPath id="clip0_155_1706">
<rect width="441" height="349.788" fill="white" transform="translate(50.0762 855.623) rotate(-90.2826)"/>
</clipPath>
<clipPath id="clip1_155_1706">
<rect width="395" height="246" fill="white" transform="translate(0 809)"/>
</clipPath>
</defs>
</svg>
