<svg width="62" height="62" viewBox="0 0 62 62" fill="none" xmlns="http://www.w3.org/2000/svg">
<g filter="url(#filter0_d_164_1251)">
<g clip-path="url(#clip0_164_1251)">
<rect x="4" width="54" height="54" rx="27" fill="#191919" fill-opacity="0.15" shape-rendering="crispEdges"/>
<path d="M19.75 54H24.25V49.5H19.75V54ZM31 29.25C34.735 29.25 37.7275 26.235 37.7275 22.5L37.75 9C37.75 5.265 34.735 2.25 31 2.25C27.265 2.25 24.25 5.265 24.25 9V22.5C24.25 26.235 27.265 29.25 31 29.25ZM28.75 54H33.25V49.5H28.75V54ZM37.75 54H42.25V49.5H37.75V54ZM46.75 22.5H42.925C42.925 29.25 37.21 33.975 31 33.975C24.79 33.975 19.075 29.25 19.075 22.5H15.25C15.25 30.1725 21.37 36.5175 28.75 37.62V45H33.25V37.62C40.63 36.5175 46.75 30.1725 46.75 22.5Z" fill="#323232"/>
</g>
</g>
<defs>
<filter id="filter0_d_164_1251" x="0" y="0" width="62" height="62" filterUnits="userSpaceOnUse" color-interpolation-filters="sRGB">
<feFlood flood-opacity="0" result="BackgroundImageFix"/>
<feColorMatrix in="SourceAlpha" type="matrix" values="0 0 0 0 0 0 0 0 0 0 0 0 0 0 0 0 0 0 127 0" result="hardAlpha"/>
<feOffset dy="4"/>
<feGaussianBlur stdDeviation="2"/>
<feComposite in2="hardAlpha" operator="out"/>
<feColorMatrix type="matrix" values="0 0 0 0 0 0 0 0 0 0 0 0 0 0 0 0 0 0 0.25 0"/>
<feBlend mode="normal" in2="BackgroundImageFix" result="effect1_dropShadow_164_1251"/>
<feBlend mode="normal" in="SourceGraphic" in2="effect1_dropShadow_164_1251" result="shape"/>
</filter>
<clipPath id="clip0_164_1251">
<rect x="4" width="54" height="54" rx="27" fill="white"/>
</clipPath>
</defs>
</svg>
