<svg width="34" height="32" viewBox="0 0 34 32" fill="none" xmlns="http://www.w3.org/2000/svg">
<path d="M8.12204 2.65652C8.00274 2.50465 7.85214 2.37964 7.68026 2.28978C7.50837 2.19993 7.31914 2.1473 7.12512 2.13538C6.9311 2.12346 6.73674 2.15254 6.55495 2.22066C6.37315 2.28879 6.20809 2.39442 6.07072 2.53053L3.981 4.60048C3.00485 5.56845 2.64511 6.93842 3.07154 8.14039C4.84142 13.1154 7.72046 17.6324 11.4951 21.3561C15.2581 25.0913 19.8225 27.9404 24.8499 29.6919C26.0646 30.1139 27.4489 29.7579 28.4271 28.7919L30.5168 26.7239C30.6544 26.588 30.7611 26.4247 30.83 26.2448C30.8988 26.0649 30.9282 25.8725 30.9161 25.6805C30.9041 25.4885 30.8509 25.3013 30.7601 25.1312C30.6693 24.9611 30.543 24.812 30.3895 24.694L25.727 21.1061C25.5631 20.9802 25.3724 20.8929 25.1693 20.8506C24.9663 20.8083 24.7562 20.8123 24.5549 20.8621L20.1289 21.9561C19.5381 22.1022 18.9191 22.0944 18.3323 21.9335C17.7454 21.7727 17.2106 21.4642 16.78 21.0381L11.8164 16.1242C11.3855 15.6983 11.0734 15.1692 10.9105 14.5884C10.7475 14.0077 10.7394 13.3951 10.8868 12.8103L11.9943 8.43038C12.0446 8.23118 12.0486 8.02326 12.0059 7.82232C11.9632 7.62138 11.8749 7.43267 11.7477 7.27041L8.12204 2.65652ZM4.54486 1.02256C4.89853 0.672473 5.32341 0.400841 5.79129 0.225707C6.25918 0.0505729 6.75936 -0.0240559 7.25863 0.0067759C7.7579 0.0376077 8.24483 0.173195 8.68708 0.404534C9.12933 0.635872 9.51679 0.95767 9.82373 1.34856L13.4494 5.96044C14.1143 6.80642 14.3488 7.9084 14.086 8.94837L12.9805 13.3283C12.9234 13.5551 12.9265 13.7927 12.9895 14.0181C13.0525 14.2434 13.1734 14.4488 13.3403 14.6142L18.3059 19.5281C18.4733 19.6936 18.6812 19.8134 18.9093 19.8758C19.1374 19.9382 19.3779 19.941 19.6074 19.8841L24.0314 18.7901C24.55 18.6618 25.0914 18.6518 25.6144 18.761C26.1375 18.8701 26.6287 19.0955 27.0508 19.4201L31.7113 23.008C33.3867 24.298 33.5403 26.7479 32.0407 28.2299L29.951 30.2978C28.4554 31.7778 26.2202 32.4278 24.1365 31.7018C18.8034 29.8449 13.9613 26.8236 9.96925 22.862C5.96621 18.9122 2.91311 14.1212 1.03639 8.84437C0.304784 6.78442 0.961612 4.57048 2.45716 3.09051L4.54688 1.02256H4.54486ZM22.9684 1.00057C22.9684 0.735355 23.0748 0.481008 23.2643 0.293476C23.4538 0.105944 23.7109 0.000589937 23.9789 0.000589937H32.0629C32.3309 0.000589937 32.5879 0.105944 32.7774 0.293476C32.9669 0.481008 33.0734 0.735355 33.0734 1.00057V9.00037C33.0734 9.26558 32.9669 9.51993 32.7774 9.70746C32.5879 9.89499 32.3309 10.0003 32.0629 10.0003C31.7949 10.0003 31.5379 9.89499 31.3484 9.70746C31.1589 9.51993 31.0524 9.26558 31.0524 9.00037V3.41451L22.6733 11.7083C22.4836 11.8961 22.2262 12.0016 21.9579 12.0016C21.6895 12.0016 21.4322 11.8961 21.2424 11.7083C21.0527 11.5205 20.9461 11.2659 20.9461 11.0003C20.9461 10.7348 21.0527 10.4801 21.2424 10.2923L29.6236 2.00054H23.9789C23.7109 2.00054 23.4538 1.89519 23.2643 1.70766C23.0748 1.52012 22.9684 1.26578 22.9684 1.00057Z" fill="#B4E0A0"/>
</svg>
