<svg width="443" height="275" viewBox="0 0 443 275" fill="none" xmlns="http://www.w3.org/2000/svg">
<g filter="url(#filter0_d_135_790)">
<path fill-rule="evenodd" clip-rule="evenodd" d="M48.2832 133.355C48.2832 116.787 61.7147 103.355 78.2832 103.355H342.825C359.393 103.355 372.825 89.9239 372.825 73.3554V44.3865C385.598 47.8289 394.998 59.4944 394.998 73.3554V103.355C394.998 103.355 394.998 103.355 394.999 103.355C394.999 103.355 394.999 103.356 394.999 103.356V163.355C394.999 163.355 394.999 163.355 394.999 163.355C394.998 163.355 394.998 163.356 394.998 163.356V193.355C394.998 207.216 385.598 218.882 372.825 222.324V193.355C372.825 176.787 359.393 163.355 342.824 163.355H78.2832C61.7147 163.355 48.2832 149.924 48.2832 133.355Z" fill="white"/>
</g>
<path d="M28.3276 141.2L21.0708 134L28.3276 126.8M39.2129 141.2L31.956 134L39.2129 126.8" stroke="white" stroke-width="2" stroke-linecap="round" stroke-linejoin="round"/>
<defs>
<filter id="filter0_d_135_790" x="0.283203" y="0.386475" width="442.715" height="273.938" filterUnits="userSpaceOnUse" color-interpolation-filters="sRGB">
<feFlood flood-opacity="0" result="BackgroundImageFix"/>
<feColorMatrix in="SourceAlpha" type="matrix" values="0 0 0 0 0 0 0 0 0 0 0 0 0 0 0 0 0 0 127 0" result="hardAlpha"/>
<feOffset dy="4"/>
<feGaussianBlur stdDeviation="24"/>
<feColorMatrix type="matrix" values="0 0 0 0 0 0 0 0 0 0 0 0 0 0 0 0 0 0 0.02 0"/>
<feBlend mode="normal" in2="BackgroundImageFix" result="effect1_dropShadow_135_790"/>
<feBlend mode="normal" in="SourceGraphic" in2="effect1_dropShadow_135_790" result="shape"/>
</filter>
</defs>
</svg>
