<svg width="50" height="50" viewBox="0 0 50 50" fill="none" xmlns="http://www.w3.org/2000/svg">
<path d="M45.2291 42.2708L37.4999 34.6042C40.5001 30.8633 41.9531 26.1152 41.5599 21.336C41.1668 16.5569 38.9576 12.1099 35.3864 8.90966C31.8153 5.70937 27.1537 3.99896 22.3602 4.13013C17.5667 4.2613 13.0056 6.22407 9.6148 9.61486C6.22401 13.0057 4.26124 17.5667 4.13007 22.3602C3.9989 27.1537 5.70931 31.8153 8.9096 35.3865C12.1099 38.9576 16.5568 41.1669 21.336 41.56C26.1151 41.9531 30.8633 40.5002 34.6041 37.5L42.2708 45.1667C42.4644 45.3619 42.6948 45.5169 42.9487 45.6227C43.2026 45.7284 43.4749 45.7829 43.7499 45.7829C44.0249 45.7829 44.2972 45.7284 44.5511 45.6227C44.805 45.5169 45.0354 45.3619 45.2291 45.1667C45.6046 44.7782 45.8145 44.259 45.8145 43.7187C45.8145 43.1785 45.6046 42.6593 45.2291 42.2708ZM22.9166 37.5C20.0323 37.5 17.2127 36.6447 14.8145 35.0423C12.4163 33.4398 10.5471 31.1622 9.44335 28.4975C8.33957 25.8327 8.05077 22.9005 8.61347 20.0716C9.17617 17.2427 10.5651 14.6442 12.6046 12.6047C14.6441 10.5652 17.2426 9.17623 20.0715 8.61353C22.9004 8.05083 25.8326 8.33963 28.4974 9.44341C31.1621 10.5472 33.4398 12.4164 35.0422 14.8146C36.6446 17.2128 37.4999 20.0323 37.4999 22.9167C37.4999 26.7844 35.9635 30.4937 33.2286 33.2286C30.4937 35.9635 26.7843 37.5 22.9166 37.5Z" fill="#181B1A"/>
</svg>
